<svg id="Layer_1" data-name="Layer 1" xmlns="http://www.w3.org/2000/svg" xmlns:xlink="http://www.w3.org/1999/xlink" viewBox="0 0 100 100"><defs><style>.cls-1{fill:#191919;}.cls-2{fill:url(#linear-gradient);}.cls-3{fill:url(#linear-gradient-2);}.cls-4{fill:url(#linear-gradient-3);}.cls-5{fill:url(#linear-gradient-4);}.cls-6{fill:url(#linear-gradient-5);}.cls-7{fill:url(#linear-gradient-6);}.cls-8{fill:url(#linear-gradient-7);}.cls-9{fill:url(#linear-gradient-8);}.cls-10{fill:url(#linear-gradient-9);}.cls-11{fill:url(#linear-gradient-10);}.cls-12{fill:url(#linear-gradient-11);}.cls-13{fill:url(#linear-gradient-12);}.cls-14{fill:url(#linear-gradient-13);}.cls-15{fill:url(#linear-gradient-14);}.cls-16{fill:url(#linear-gradient-15);}.cls-17{fill:url(#linear-gradient-16);}.cls-18{fill:url(#linear-gradient-17);}.cls-19{fill:url(#linear-gradient-18);}.cls-20{fill:url(#linear-gradient-19);}.cls-21{fill:url(#linear-gradient-20);}.cls-22{fill:url(#linear-gradient-21);}.cls-23{fill:url(#linear-gradient-22);}.cls-24{fill:url(#linear-gradient-23);}.cls-25{fill:url(#linear-gradient-24);}.cls-26{fill:url(#linear-gradient-25);}.cls-27{fill:url(#linear-gradient-26);}.cls-28{fill:url(#linear-gradient-27);}.cls-29{fill:url(#linear-gradient-28);}.cls-30{fill:url(#linear-gradient-29);}.cls-31{fill:url(#linear-gradient-30);}.cls-32{fill:url(#linear-gradient-31);}.cls-33{fill:url(#linear-gradient-32);}</style><linearGradient id="linear-gradient" x1="-2.12" y1="23.48" x2="87.3" y2="86.75" gradientUnits="userSpaceOnUse"><stop offset="0.03" stop-color="#d5a727"/><stop offset="0.05" stop-color="#d7aa2b"/><stop offset="0.06" stop-color="#ddb139"/><stop offset="0.08" stop-color="#e6be4e"/><stop offset="0.1" stop-color="#f3d16d"/><stop offset="0.12" stop-color="#ffe188"/><stop offset="0.15" stop-color="#fddd82"/><stop offset="0.2" stop-color="#f7d173"/><stop offset="0.21" stop-color="#f4cc6c"/><stop offset="0.33" stop-color="#eec45f"/><stop offset="0.45" stop-color="#d5a727"/><stop offset="0.5" stop-color="#d7a92b"/><stop offset="0.55" stop-color="#dcb038"/><stop offset="0.61" stop-color="#e5ba4d"/><stop offset="0.61" stop-color="#e6bb4f"/><stop offset="0.68" stop-color="#f3d47f"/><stop offset="0.73" stop-color="#fce49e"/><stop offset="0.75" stop-color="#ffeaaa"/><stop offset="0.89" stop-color="#e1b03a"/><stop offset="1" stop-color="#bd8900"/></linearGradient><linearGradient id="linear-gradient-2" x1="-10.68" y1="35.58" x2="78.74" y2="98.85" xlink:href="#linear-gradient"/><linearGradient id="linear-gradient-3" x1="13.02" y1="2.09" x2="102.44" y2="65.36" xlink:href="#linear-gradient"/><linearGradient id="linear-gradient-4" x1="-0.91" y1="21.78" x2="88.5" y2="85.05" xlink:href="#linear-gradient"/><linearGradient id="linear-gradient-5" x1="15.63" y1="-1.59" x2="105.04" y2="61.68" xlink:href="#linear-gradient"/><linearGradient id="linear-gradient-6" x1="20.18" y1="-8.03" x2="109.6" y2="55.23" xlink:href="#linear-gradient"/><linearGradient id="linear-gradient-7" x1="18.34" y1="-5.43" x2="107.76" y2="57.84" xlink:href="#linear-gradient"/><linearGradient id="linear-gradient-8" x1="16.22" y1="-2.43" x2="105.64" y2="60.84" xlink:href="#linear-gradient"/><linearGradient id="linear-gradient-9" x1="7.21" y1="10.3" x2="96.63" y2="73.57" xlink:href="#linear-gradient"/><linearGradient id="linear-gradient-10" x1="6.26" y1="11.65" x2="95.67" y2="74.91" xlink:href="#linear-gradient"/><linearGradient id="linear-gradient-11" x1="-1.73" y1="22.94" x2="87.68" y2="86.21" xlink:href="#linear-gradient"/><linearGradient id="linear-gradient-12" x1="-8.98" y1="33.18" x2="80.44" y2="96.45" xlink:href="#linear-gradient"/><linearGradient id="linear-gradient-13" x1="21.92" y1="-10.49" x2="111.33" y2="52.78" xlink:href="#linear-gradient"/><linearGradient id="linear-gradient-14" x1="14.1" y1="0.56" x2="103.52" y2="63.83" xlink:href="#linear-gradient"/><linearGradient id="linear-gradient-15" x1="2.39" y1="17.11" x2="91.81" y2="80.38" xlink:href="#linear-gradient"/><linearGradient id="linear-gradient-16" x1="-6.57" y1="29.78" x2="82.84" y2="93.05" xlink:href="#linear-gradient"/><linearGradient id="linear-gradient-17" x1="23.2" y1="-12.3" x2="112.62" y2="50.97" xlink:href="#linear-gradient"/><linearGradient id="linear-gradient-18" x1="20.14" y1="-7.97" x2="109.55" y2="55.3" xlink:href="#linear-gradient"/><linearGradient id="linear-gradient-19" x1="12.12" y1="3.36" x2="101.54" y2="66.62" xlink:href="#linear-gradient"/><linearGradient id="linear-gradient-20" x1="23.76" y1="-13.08" x2="113.17" y2="50.18" xlink:href="#linear-gradient"/><linearGradient id="linear-gradient-21" x1="4.67" y1="13.9" x2="94.08" y2="77.16" xlink:href="#linear-gradient"/><linearGradient id="linear-gradient-22" x1="3.64" y1="15.34" x2="93.06" y2="78.61" xlink:href="#linear-gradient"/><linearGradient id="linear-gradient-23" x1="23.86" y1="-13.22" x2="113.27" y2="50.04" xlink:href="#linear-gradient"/><linearGradient id="linear-gradient-24" x1="0.62" y1="19.62" x2="90.03" y2="82.89" xlink:href="#linear-gradient"/><linearGradient id="linear-gradient-25" x1="5.59" y1="12.59" x2="95.01" y2="75.86" xlink:href="#linear-gradient"/><linearGradient id="linear-gradient-26" x1="-4.08" y1="26.26" x2="85.34" y2="89.52" xlink:href="#linear-gradient"/><linearGradient id="linear-gradient-27" x1="22.31" y1="-11.04" x2="111.73" y2="52.23" xlink:href="#linear-gradient"/><linearGradient id="linear-gradient-28" x1="8.29" y1="8.78" x2="97.7" y2="72.05" xlink:href="#linear-gradient"/><linearGradient id="linear-gradient-29" x1="5.58" y1="12.6" x2="95" y2="75.87" xlink:href="#linear-gradient"/><linearGradient id="linear-gradient-30" x1="5.75" y1="12.36" x2="95.17" y2="75.63" xlink:href="#linear-gradient"/><linearGradient id="linear-gradient-31" x1="7.92" y1="9.29" x2="97.34" y2="72.56" xlink:href="#linear-gradient"/><linearGradient id="linear-gradient-32" x1="8.51" y1="8.47" x2="97.92" y2="71.73" xlink:href="#linear-gradient"/></defs><rect class="cls-1" width="100" height="100"/><path class="cls-2" d="M87.24,50a4,4,0,0,1,.29-.8,2,2,0,0,1,1.67-.93,2.8,2.8,0,0,1,2.34.9,1.22,1.22,0,0,1,.35,1.34.52.52,0,0,1-.63.37,2.91,2.91,0,0,1-.39-.12,1.19,1.19,0,0,0-1.46.41,7.56,7.56,0,0,0-1.35,3,20.35,20.35,0,0,0-.42,5.39v.2c-.25-.06-.31.05-.39.28-.36,1.17-.73,2.35-1.19,3.49a4.58,4.58,0,0,1-1.66,2.08,1.38,1.38,0,0,1,1.24,1.47,1.4,1.4,0,0,1-1.23,1.27c.23.43.44.85.68,1.26s.62,1.06,1,1.57a.38.38,0,0,1,0,.48c-.51.83-1,1.67-1.48,2.51a2,2,0,0,0-.13.31c.21.14.41.25.59.39s.21.41,0,.53a2.32,2.32,0,0,1-1,.32c-2.06,0-4.11,0-6.17,0h-63a1.57,1.57,0,0,1-.74-.16.74.74,0,0,1-.38-.47c0-.12.19-.36.35-.42.41-.13.85-.2,1.32-.3-.09-.18-.2-.41-.32-.62-.41-.73-.84-1.45-1.25-2.18a.37.37,0,0,1,0-.31c.5-.89,1-1.77,1.51-2.64.1-.17.12-.27-.11-.34a1.29,1.29,0,0,1-1-1,1.34,1.34,0,0,1,.71-1.47l.16-.08a4.11,4.11,0,0,1-1.34-1.56,13.18,13.18,0,0,1-1.16-3.08c-.07-.26-.08-.53-.17-.78s0-.49-.35-.36a.75.75,0,0,1-.12-.28c0-.66,0-1.32,0-2a12.47,12.47,0,0,0-1.16-5.24,6.19,6.19,0,0,0-.87-1.18A1.47,1.47,0,0,0,8.31,51c-.29.08-.59.18-.81-.06a1,1,0,0,1-.12-1A1.62,1.62,0,0,1,8.11,49a3.1,3.1,0,0,1,2.73-.47,1.81,1.81,0,0,1,1.48,1.5,1.19,1.19,0,0,0,.08.22,1.86,1.86,0,0,1,.27-.22.85.85,0,0,1,.85-.18c.38.15.42.5.47.83.09.6-.32,1-.67,1.37-.18.19-.4.35-.59.52l.35,1.18a2,2,0,0,1,1-1.17c.67-.29,1.24-.07,1.36,1a6,6,0,0,1,0,.6c.36-.09.69-.2,1-.26a1.92,1.92,0,0,1,1.86.57,1.5,1.5,0,0,1,0,1.89,2.8,2.8,0,0,1-1.25,1l-.15.07a.08.08,0,0,0,0,0,6.31,6.31,0,0,1,.6.89.83.83,0,0,1-.84,1.26,3,3,0,0,1-2.46-1.24,1.12,1.12,0,0,0-.2-.17c0,.07-.16.13-.16.2,0,.45,0,.9,0,1.37,0,.08-.15.22-.13.33a10.15,10.15,0,0,0,1.54,4,2.17,2.17,0,0,0,.82.68,1.11,1.11,0,0,0,1.17-.32,8.78,8.78,0,0,0,2.1-2.63c.42-.75.81-1.52,1.2-2.28a.4.4,0,0,0-.11-.56,1.5,1.5,0,0,1,.18-2.33,1.47,1.47,0,0,1,1.63-.12,1.39,1.39,0,0,1,.8,1.48c-.07.68-.31,1-1.11,1.39a14.43,14.43,0,0,0,2.82,4.42,2.72,2.72,0,0,0,1.57.92,1.78,1.78,0,0,0,1.54-.65,7.29,7.29,0,0,0,1.51-2.45c.27-.69.54-1.38.8-2.07a.44.44,0,0,0,0-.32,5.85,5.85,0,0,1-.56-2.08c-.05-.47,0-.48-.53-.41a3.11,3.11,0,0,1-1.74,2.48,1.32,1.32,0,0,1-1,.11,1,1,0,0,1-.46-1.11,7.46,7.46,0,0,1,.26-.85,3.63,3.63,0,0,1-1.83-.58,1.5,1.5,0,0,1,0-2.48,2.92,2.92,0,0,1,2-.52,2.74,2.74,0,0,1-.24-.79,1.75,1.75,0,0,1,.22-.94.78.78,0,0,1,.93-.19,3.18,3.18,0,0,1,2,2,2.28,2.28,0,0,1,0,.7h.32l.24-1.78c-.16,0-.36-.06-.54-.12a3,3,0,0,1-2-1.88c-.26-.74,0-1.18.46-1.3a1.85,1.85,0,0,1,1.15.15l.24.1c.1-.45.16-.9.29-1.33a1.72,1.72,0,0,1,1.19-1.18,1.54,1.54,0,0,1,1.65.69,3.49,3.49,0,0,1,.5,1.8,8.85,8.85,0,0,1,1-.16c.91,0,1.29.64.84,1.45a3.16,3.16,0,0,1-2.69,1.68c.06.41.11.84.17,1.26,0,.13,0,.28.05.41a.94.94,0,0,0,.12.22c.05-.06.14-.12.16-.19a3,3,0,0,1,1.24-1.7,1.78,1.78,0,0,1,1.42-.45.87.87,0,0,1,.66,1,9.08,9.08,0,0,1-.3.92,12.62,12.62,0,0,1,1.54.51,1.54,1.54,0,0,1,.74,2.1,1.61,1.61,0,0,1-.56.57A3.21,3.21,0,0,1,35,57.9c.06.21.1.42.17.62A1.07,1.07,0,0,1,35,59.65a.75.75,0,0,1-.83.17A2.76,2.76,0,0,1,32.36,58a9.89,9.89,0,0,1-.28-1.24s-.13.07-.15.15a11.62,11.62,0,0,0-.27,1.43,2,2,0,0,0,.24.79A18,18,0,0,0,34,63a4.07,4.07,0,0,0,1.34,1.2,1.33,1.33,0,0,0,1.71-.29,6.72,6.72,0,0,0,1.61-2.42c.29-.66.54-1.33.78-2a.36.36,0,0,0-.09-.34,1.36,1.36,0,0,1-.49-1.74,1.49,1.49,0,0,1,1.79-1,1.56,1.56,0,0,1,1.19,1.5,1.37,1.37,0,0,1-.64,1.25c-.2.11-.22.22-.14.44A16.16,16.16,0,0,0,42.87,63a6.18,6.18,0,0,0,1.41,1.43,1.55,1.55,0,0,0,2.34-.15,5.92,5.92,0,0,0,1.27-1.66c.53-1,1-2,1.39-3.06a1,1,0,0,0,0-.52c-.12-.59-.3-1.17-.38-1.76-.06-.38-.27-.37-.53-.39a3.06,3.06,0,0,1-1.74,2.55,1,1,0,0,1-1.17,0,.93.93,0,0,1-.28-1.08,4.52,4.52,0,0,0,.18-.7,9,9,0,0,1-1.56-.53A1.43,1.43,0,0,1,43,55.21a2.15,2.15,0,0,1,.74-.85A2.45,2.45,0,0,1,45.52,54c-.07-.27-.13-.5-.21-.73a.94.94,0,0,1,.27-1.07,1,1,0,0,1,1.14,0,3.06,3.06,0,0,1,1.8,2.3l.06.16.11.15a.39.39,0,0,0,.1-.16c.1-.5.19-1,.26-1.51,0,0-.13-.16-.2-.16a3,3,0,0,1-2.53-2.32.83.83,0,0,1,.76-.94,12.14,12.14,0,0,1,1.25.18c0-.19.07-.46.1-.72a2.35,2.35,0,0,1,.8-1.44,1.53,1.53,0,0,1,1.82,0,2.43,2.43,0,0,1,.86,1.76,3.8,3.8,0,0,1,.05.43,10.15,10.15,0,0,1,1.09-.14.84.84,0,0,1,.84,1.16,3.06,3.06,0,0,1-2.8,2l.28,1.86.08,0a1.22,1.22,0,0,0,.17-.29,2.88,2.88,0,0,1,1.82-1.93,1.63,1.63,0,0,1,.57-.13c.81,0,1,.52.84,1.28a4.09,4.09,0,0,1-.28.72c.27,0,.53.06.79.12a2.12,2.12,0,0,1,1.56,1.11,1.43,1.43,0,0,1-.71,1.94,3.11,3.11,0,0,1-1.8.44,2.12,2.12,0,0,1,.05,1.54c-.21.57-.86.49-1.33.24a3.09,3.09,0,0,1-1.54-2.06,4.06,4.06,0,0,1-.05-.86l-.1,0a2.39,2.39,0,0,0-.16.32c-.17.67-.36,1.34-.47,2A1.57,1.57,0,0,0,51,60c.55,1.07,1.09,2.16,1.72,3.19a4.12,4.12,0,0,0,1.56,1.48,1.4,1.4,0,0,0,1.62-.18A5.57,5.57,0,0,0,57.6,62.3c.33-.76.72-1.5,1.07-2.25.12-.26.21-.54.32-.83a1.52,1.52,0,0,1-.7-1.32,1.56,1.56,0,0,1,1.48-1.5,1.51,1.51,0,0,1,1.49,2.06,2,2,0,0,1-.59.76c-.15.14-.19.21-.11.4a13.82,13.82,0,0,0,2.14,3.53,5.17,5.17,0,0,0,1.22,1,1.58,1.58,0,0,0,2-.39,8.23,8.23,0,0,0,1.75-2.68c.28-.58.49-1.2.72-1.8a.56.56,0,0,0,.06-.3c-.17-.74-.36-1.47-.55-2.21a.69.69,0,0,0-.25,0c-.09,0-.24.09-.24.15a2.78,2.78,0,0,1-1.49,2.27,1.27,1.27,0,0,1-1.09.21.65.65,0,0,1-.54-.68,10.69,10.69,0,0,1,.17-1.21c-.46-.16-1-.3-1.5-.52a1.5,1.5,0,0,1,0-2.77,3.1,3.1,0,0,1,1.67-.35,9.08,9.08,0,0,1-.2-1.14.76.76,0,0,1,.89-.84,2.5,2.5,0,0,1,1.64,1,2.6,2.6,0,0,1,.66,1.92c.17-.13.31-.18.33-.26.09-.55.16-1.11.23-1.63a8,8,0,0,1-1.27-.48,2.78,2.78,0,0,1-1.36-1.66c-.27-1,.37-1.4,1.25-1.18a6,6,0,0,1,.67.26,2.21,2.21,0,0,0,.06-.34,2.66,2.66,0,0,1,.57-1.65,1.44,1.44,0,0,1,2.16-.17A2.51,2.51,0,0,1,71,49.46c0,.11,0,.23,0,.39a2.8,2.8,0,0,1,.47-.11,4.72,4.72,0,0,1,1,0,.71.71,0,0,1,.56.85,3.05,3.05,0,0,1-2.48,2.17,1.7,1.7,0,0,1-.39-.07l.33,2.15c.12-.15.21-.21.23-.28a3,3,0,0,1,2.09-2.16.86.86,0,0,1,1.16,1.11c-.07.27-.19.54-.3.85a3.27,3.27,0,0,1,.83.13,3.94,3.94,0,0,1,1.22.69,1.38,1.38,0,0,1-.28,2.22,2.88,2.88,0,0,1-2,.47,2.46,2.46,0,0,0,.09.29,2,2,0,0,1,0,1.23.82.82,0,0,1-1,.45,2.93,2.93,0,0,1-1.86-2.2,3.57,3.57,0,0,1,0-.81c-.24-.1-.27.08-.3.26-.08.41-.15.82-.23,1.24a.84.84,0,0,1-.08.33,1.79,1.79,0,0,0,0,1.89,10.47,10.47,0,0,0,1.45,2.77,3.43,3.43,0,0,0,1.34,1.19,1.62,1.62,0,0,0,1.39-.13A3.92,3.92,0,0,0,75.75,63c.63-1,1.22-1.93,1.8-2.9a.65.65,0,0,1,.62-.41c.31,0,.41.22.54.43a15.33,15.33,0,0,0,2.49,3.67,5.46,5.46,0,0,0,1.22.91,1.49,1.49,0,0,0,1.92-.63,10.2,10.2,0,0,0,1.53-3.57L86,60c0-.09.05-.25,0-.27-.28-.2-.09-.41,0-.6a2,2,0,0,0-.18-1.25l-.38.49a2.65,2.65,0,0,1-2,1,.8.8,0,0,1-.8-1.23,9.52,9.52,0,0,1,.52-.91A3.38,3.38,0,0,1,81.65,56a1.74,1.74,0,0,1,.07-1.61,1.72,1.72,0,0,1,1.87-.62,5.75,5.75,0,0,1,.86.25v-.71a1,1,0,0,1,.57-1,.88.88,0,0,1,.94.31,9,9,0,0,1,.64.85c.09-.35.18-.7.25-1,0-.07-.07-.17-.13-.23a3.48,3.48,0,0,0-.47-.47,1.42,1.42,0,0,1-.44-1.53.87.87,0,0,1,.37-.51.69.69,0,0,1,.73.11ZM69,61.17c-.08.15-.17.31-.25.48a10.31,10.31,0,0,1-1.84,2.91,3,3,0,0,1-3.88.52,8.18,8.18,0,0,1-2.58-3c-.23-.4-.45-.82-.7-1.26a11.21,11.21,0,0,1-3.24,4.83h16.1a4.31,4.31,0,0,1-2.22-1.92C69.85,62.92,69.44,62,69,61.17Zm11.35,7.15h-6l0,.09,4,2.84-4,3.29h6a.68.68,0,0,0-.08-.17l-1.51-2.63a.58.58,0,0,1-.06-.44,3.2,3.2,0,0,1,.32-.57Zm-22,.06c.72.53,1.36,1,2,1.47s1.18.83,1.78,1.23c.21.14.24.25,0,.36l-.14.1-2.32,1.89c-.41.33-.81.68-1.27,1.07H64.1c-.11-.22-.21-.4-.32-.58-.41-.71-.82-1.42-1.24-2.13a.55.55,0,0,1,0-.67c.3-.48.58-1,.87-1.48s.46-.83.71-1.26Zm-4.65,3,3.81-2.87,0-.07H51.81c.52.85.95,1.62,1.44,2.35.36.54.4.71.07,1.25l-1.47,2.47H57.6ZM31.76,74.48c-.52-.88-1-1.7-1.49-2.51a.8.8,0,0,1,0-1c.2-.29.37-.59.55-.9l1-1.7H26.11a10.37,10.37,0,0,0,1.16.9c.83.6,1.65,1.21,2.5,1.77.25.17.24.24,0,.38s-.73.51-1.08.79-1,.81-1.46,1.23l-1.19,1ZM21.2,60.94a13.3,13.3,0,0,1-3.51,4.72h7.24A11.81,11.81,0,0,1,21.2,60.94ZM28,65.65h7.41a4.63,4.63,0,0,0-.51-.24,5.36,5.36,0,0,1-2.15-2c-.59-.9-1.09-1.85-1.62-2.77C30.37,62.46,29.7,64.36,28,65.65Zm8.64,0H43.8A11.56,11.56,0,0,1,40.27,61c-.06.13-.11.21-.14.29a10.85,10.85,0,0,1-1.54,2.84A4,4,0,0,1,36.61,65.63Zm41.52-4c-.5.74-1,1.51-1.52,2.26a5.44,5.44,0,0,1-2.18,1.79h7.35a7.16,7.16,0,0,1-2.07-1.83C79.13,63.1,78.63,62.31,78.13,61.6Zm-24.75,4A11.4,11.4,0,0,1,50.05,61a10.59,10.59,0,0,1-3,4.62ZM25.21,74.51v-.08l-3.8-3-1.84,3.12Zm.05-6.15h-5.7l1.76,3Zm20.68,3-3.7,3.09h5.49Zm-8.29.06-1.79,3h5.58Zm32.28.12-1.75,3h5.47ZM35.85,68.4l1.7,2.89,3.84-2.89Zm6.43,0,0,.07,1.92,1.38c.64.45,1.27.91,1.94,1.4l1.65-2.85Zm25.91,0c.49.83,1,1.62,1.43,2.44.19.34.36.26.59.09.76-.59,1.53-1.16,2.3-1.75.3-.22.59-.46.89-.69l0-.09Zm2-12.73a1.1,1.1,0,1,0-2.2,0,1.1,1.1,0,0,0,1.08,1.14A1.08,1.08,0,0,0,70.2,55.65ZM30.65,54.57a1,1,0,0,0-1.11,1,1.06,1.06,0,0,0,1,1.11,1.08,1.08,0,0,0,1.17-1A1.06,1.06,0,0,0,30.65,54.57ZM50,56.78a1,1,0,0,0,1.06-1,1.06,1.06,0,0,0-1-1.14,1.08,1.08,0,0,0-1.08,1.21A1,1,0,0,0,50,56.78Zm-38-.93a7.36,7.36,0,0,0,.35.86c.18.3.49.26.73,0A1.57,1.57,0,0,0,13.13,55a.46.46,0,0,0-.81,0A4.5,4.5,0,0,0,12,55.85Zm75.58-.24a4.75,4.75,0,0,0-.33-.87.37.37,0,0,0-.64,0,1.57,1.57,0,0,0-.1,1.68c.24.4.58.41.8,0A4.53,4.53,0,0,0,87.58,55.61Z"/><path class="cls-3" d="M50.73,80H32.12L24.9,80H15.52a1.41,1.41,0,0,1-1.31-1.24A1.63,1.63,0,0,1,15,77a.9.9,0,0,1,.46-.11H43.69l6.81,0,22,0c1.59,0,3.18,0,4.78,0,2.26,0,4.53,0,6.8,0a1.33,1.33,0,0,1,1.41,1A1.54,1.54,0,0,1,84.15,80H83.06c-1.62,0-3.23-.07-4.85-.07L66.84,80H50.73Z"/><path class="cls-4" d="M48.78,23.75,48.05,20h2.73a8.91,8.91,0,0,0-.63,3.74c.83-.08,1.65-.16,2.46-.26a4.07,4.07,0,0,0,.91-.24c.19-.06.25,0,.25.17,0,.63,0,1.27,0,2a6.64,6.64,0,0,0-3.61-.62,8.31,8.31,0,0,0,.07,1c.1.61.22,1.22.36,1.82a.52.52,0,0,0,.28.33,3.93,3.93,0,0,1,2.47,2.43,4.11,4.11,0,0,1,0,2.83,4,4,0,0,1-4.09,2.61,3.84,3.84,0,0,1-3.34-2.3,3.89,3.89,0,0,1,.5-4.26,3.14,3.14,0,0,1,1.54-1.16,1.06,1.06,0,0,0,.78-1c.07-.66.09-1.33.11-2,0-.07-.14-.23-.2-.22-.84.09-1.67.2-2.5.32-.25,0-.49.12-.75.14-.08,0-.24-.11-.24-.18,0-.58,0-1.17,0-1.75,0-.07.18-.2.22-.18a9.59,9.59,0,0,0,2.43.47C48.07,23.72,48.39,23.72,48.78,23.75Z"/><path class="cls-5" d="M41.27,40c-.91-.12-2.11-.24-3.3-.45a33,33,0,0,1-5.65-1.75c-1.11-.42-2.21-.89-3.33-1.3a32.76,32.76,0,0,0-5.74-1.74,14.89,14.89,0,0,0-3.52-.18A9.57,9.57,0,0,0,14,37a10.22,10.22,0,0,0-2.15,2.54,6.26,6.26,0,0,0-.9,3.47,7.29,7.29,0,0,0,1.13,3.54,1.35,1.35,0,0,1,.16.42.7.7,0,0,1-.36.8.82.82,0,0,1-1-.25,8.87,8.87,0,0,1-1.41-3.94,8,8,0,0,1,2.1-6.24A14,14,0,0,1,14.06,35a10.72,10.72,0,0,1,4.55-1.78,13.34,13.34,0,0,1,3.51-.12,28.14,28.14,0,0,1,3.15.58,35.19,35.19,0,0,1,5.15,1.77c.81.32,1.61.68,2.43,1,1.74.59,3.46,1.23,5.24,1.67a17.57,17.57,0,0,0,3.83.43,8.77,8.77,0,0,0,3.41-.69c.59-.24.91-.27,1.22.21a.68.68,0,0,1-.3,1.05,9.63,9.63,0,0,1-2.89.75Z"/><path class="cls-6" d="M90.63,42.08a10.23,10.23,0,0,1-1.31,4.4c-.28.5-.67.65-1.07.44a.73.73,0,0,1-.32-1,9.8,9.8,0,0,0,1-2.59,6.14,6.14,0,0,0-.13-3,8.7,8.7,0,0,0-2.13-3.41A9.32,9.32,0,0,0,83,34.52,10.09,10.09,0,0,0,80.15,34a17.38,17.38,0,0,0-7.23,1.31c-.88.33-1.74.72-2.61,1.07-1.87.74-3.72,1.52-5.61,2.2a29.15,29.15,0,0,1-3.55,1,13.47,13.47,0,0,1-2.2.25,14.2,14.2,0,0,1-3.79-.28c-.5-.11-1-.3-1.46-.45a.77.77,0,0,1-.43-1,.72.72,0,0,1,.94-.43,11.7,11.7,0,0,0,4.73.65c.58,0,1.15-.18,1.73-.24a16.51,16.51,0,0,0,3.6-1c1.2-.42,2.37-.92,3.56-1.39,1.39-.55,2.78-1.09,4.16-1.66a26.21,26.21,0,0,1,4-1.21,15,15,0,0,1,4.37-.32,10.47,10.47,0,0,1,4.44,1.26A13.84,13.84,0,0,1,88,36.14a8.53,8.53,0,0,1,2.29,4C90.43,40.74,90.51,41.41,90.63,42.08Z"/><path class="cls-7" d="M74.26,28.22a2,2,0,1,1-2,2A2,2,0,0,1,74.26,28.22Z"/><path class="cls-8" d="M68.06,31.2a2,2,0,0,1,2-2.07,2,2,0,0,1,.19,4.06A2,2,0,0,1,68.06,31.2Z"/><path class="cls-9" d="M65.57,30.48a1.89,1.89,0,0,1,2,1.9,2,2,0,1,1-4.07.13A2,2,0,0,1,65.57,30.48Z"/><path class="cls-10" d="M44.69,35.36a1.94,1.94,0,0,1-2,2,2,2,0,0,1-2-2.09,2,2,0,0,1,2-2A2,2,0,0,1,44.69,35.36Z"/><path class="cls-11" d="M38.36,36.37a2,2,0,1,1,2-2A2,2,0,0,1,38.36,36.37Z"/><path class="cls-12" d="M12.06,34.74a2,2,0,0,1-2-2,2,2,0,0,1,2-2,2,2,0,0,1,2,2A1.92,1.92,0,0,1,12.06,34.74Z"/><path class="cls-13" d="M9.05,44.41A2.07,2.07,0,0,1,7,46.56a2.13,2.13,0,0,1-2-2,2,2,0,0,1,1.92-2.13A2,2,0,0,1,9.05,44.41Z"/><path class="cls-14" d="M80.69,29.71a2,2,0,0,1-2.08,2,2,2,0,1,1,.14-4A2,2,0,0,1,80.69,29.71Z"/><path class="cls-15" d="M63.47,34a2,2,0,0,1-2,2.07,2,2,0,0,1-2.06-2,2,2,0,0,1,2-2A2,2,0,0,1,63.47,34Z"/><path class="cls-16" d="M19,30.27a2,2,0,0,1,2-2,2,2,0,1,1,0,4A2,2,0,0,1,19,30.27Z"/><path class="cls-17" d="M7.27,41.61a2,2,0,0,1,0-4,2,2,0,1,1,0,4Z"/><path class="cls-18" d="M81.19,30.11a2,2,0,0,1,4,.07,2,2,0,1,1-4-.07Z"/><path class="cls-19" d="M93,45.59a2,2,0,1,1,2-2A2,2,0,0,1,93,45.59Z"/><path class="cls-20" d="M59.15,35.2a2,2,0,0,1-2,2,2,2,0,1,1,2-2Z"/><path class="cls-21" d="M93,34.5a2,2,0,1,1-4,0,2,2,0,0,1,4,0Z"/><path class="cls-22" d="M29.67,33.6a2,2,0,0,1-2-2,2.08,2.08,0,0,1,2-2.06,2,2,0,0,1,2,2A2,2,0,0,1,29.67,33.6Z"/><path class="cls-23" d="M25.45,32.75a1.9,1.9,0,0,1-2-2.09,2,2,0,0,1,2.09-1.92,2,2,0,0,1,1.95,2A2,2,0,0,1,25.45,32.75Z"/><path class="cls-24" d="M87.7,29.92a2,2,0,0,1,2,2,2,2,0,1,1-2-2Z"/><path class="cls-25" d="M18.53,30.86a2,2,0,1,1-4,0,2,2,0,1,1,4,0Z"/><path class="cls-26" d="M32.19,32.79a2,2,0,0,1,2.06-2,2,2,0,0,1-.06,4A2,2,0,0,1,32.19,32.79Z"/><path class="cls-27" d="M10.82,35.42a2,2,0,0,1-4,0,2.05,2.05,0,0,1,1.79-2A2,2,0,0,1,10.82,35.42Z"/><path class="cls-28" d="M94.59,38.69a2,2,0,0,1-2,2,2,2,0,0,1-2-2,2,2,0,0,1,1.92-2A1.94,1.94,0,0,1,94.59,38.69Z"/><path class="cls-29" d="M51.74,40.36a9.62,9.62,0,0,1,1-4.5,3.17,3.17,0,0,1,1.49-1.49.8.8,0,0,1,.53,0c.07,0,.08.25.1.38a.24.24,0,0,1-.09.18A4,4,0,0,0,53,37.38a7.85,7.85,0,0,0-.42,3,22.12,22.12,0,0,0,.34,3.24c.23,1.28.58,2.55.88,3.82.05.24-.1.55-.32.56s-.35-.12-.43-.36a30.22,30.22,0,0,1-1.1-4.86C51.81,42,51.8,41.15,51.74,40.36Z"/><path class="cls-30" d="M48.18,40.63a17.76,17.76,0,0,1-.42,3.6c-.26,1.1-.44,2.21-.67,3.31a.77.77,0,0,1-.25.43.44.44,0,0,1-.43,0,.67.67,0,0,1-.14-.49c.11-.55.27-1.08.41-1.62a18.6,18.6,0,0,0,.68-5.79,6.89,6.89,0,0,0-1.18-3.91,5.29,5.29,0,0,0-1-1c-.24-.18-.31-.33-.18-.58s.42-.17.59-.08A3.54,3.54,0,0,1,47,35.85a8.14,8.14,0,0,1,1.11,3.72C48.12,40,48.15,40.36,48.18,40.63Z"/><path class="cls-31" d="M50,45.29A1.64,1.64,0,1,1,50,42a1.57,1.57,0,0,1,1.65,1.62A1.52,1.52,0,0,1,50,45.29Z"/><path class="cls-32" d="M50.08,37.42a1.56,1.56,0,0,1,1.53,1.66,1.65,1.65,0,0,1-1.88,1.61A1.67,1.67,0,0,1,48.3,39,1.59,1.59,0,0,1,50.08,37.42Z"/><path class="cls-33" d="M78.39,56.42a1.53,1.53,0,0,1,.2,3,1.58,1.58,0,0,1-1.73-1.6C76.84,57.25,77.59,56.28,78.39,56.42Z"/></svg>